<?xml version="1.0" encoding="utf-8"?>
<!-- Svg Vector Icons : http://www.onlinewebfonts.com/icon -->
<!DOCTYPE svg PUBLIC "-//W3C//DTD SVG 1.1//EN" "http://www.w3.org/Graphics/SVG/1.1/DTD/svg11.dtd">
<svg version="1.1" xmlns="http://www.w3.org/2000/svg" xmlns:xlink="http://www.w3.org/1999/xlink" x="0px" y="0px" viewBox="0 0 256 256" enable-background="new 0 0 256 256" xml:space="preserve">
<metadata> Svg Vector Icons : http://www.onlinewebfonts.com/icon </metadata>
<g><g><g><path fill="#000000" d="M11.2,11.2L10,12.3v115.5v115.6l1.3,1.3l1.3,1.3H128h115.3l1.3-1.3l1.3-1.3V127.8V12.3l-1.2-1.1l-1.1-1.2H128H12.3L11.2,11.2z M238.2,37.4V57H128H17.8V37.4V17.8H128h110.2V37.4z M238.2,151.5v86.7H128H17.8v-86.7V64.9H128h110.2V151.5z"/><path fill="#000000" d="M31.4,23.3c-3.5,1.7-6.7,5.1-8.3,8.5c-1.1,2.4-1.2,3.2-1,6.2c0.2,4.4,1.5,7.2,4.6,10.4c3.3,3.3,6.6,4.7,11,4.7c4.2,0,7.6-1.5,10.7-4.7c3.3-3.3,4.7-6.5,4.7-10.6c0-4.3-1.4-7.7-4.7-11c-3.2-3.2-6-4.4-10.5-4.6C34.6,21.9,33.9,22.1,31.4,23.3z M41.8,30.8c2.7,1.8,3.5,3.3,3.5,6.5c0,5.2-2.7,7.9-7.9,7.9c-3.2,0-4.7-0.8-6.5-3.5c-0.9-1.3-1.1-2-0.9-4.7c0.2-3.5,1.1-5.2,3.6-6.5C35.9,29.5,39.9,29.5,41.8,30.8z"/><path fill="#000000" d="M67.2,23.1c-5.1,2.4-8.3,6.1-9.5,11.2c-1.8,6.9,2.2,14.2,9.4,17.6c7.2,3.4,16.2-0.2,19.9-7.9c1.8-3.8,2.1-6,1.2-9.6C86.3,27.1,80,22,72.9,22C70.5,22,69.1,22.3,67.2,23.1z M77.3,30.9c2.4,1.5,3.4,3.6,3.4,6.8c0,4.9-2.7,7.6-7.7,7.6c-5,0-7.7-2.9-7.7-7.9c0-4.7,2.9-7.5,7.7-7.5C75.1,29.8,76.1,30.1,77.3,30.9z"/><path fill="#000000" d="M103.3,22.7c-4.5,1.6-8.8,6.4-10.2,11.2c-2.8,9.4,6.7,20.5,16.6,19.3c3.3-0.4,7.7-2.7,9.9-5.2c2.9-3.2,3.9-5.9,4.1-10c0.2-3,0-3.9-1-6.2c-1.6-3.5-4.9-6.8-8.3-8.5c-2.3-1.1-3.3-1.3-6-1.3C106.7,22,104.4,22.4,103.3,22.7z M112.3,30.7c2.5,1.2,3.7,3.4,3.7,6.7c0,5.2-2.6,7.9-7.6,7.9c-5.1,0-7.8-2.7-7.8-7.9c0-3.2,0.8-4.7,3.5-6.5C106,29.5,110,29.5,112.3,30.7z"/><path fill="#000000" d="M35.4,81.3c-0.3,0.1-0.9,0.8-1.2,1.5C33.6,84,33.5,93,33.5,152v67.9l1.3,1.3l1.3,1.3h40.7h40.7l1.3-1.3l1.3-1.3v-68.3V83.2l-1.2-1.1l-1.1-1.2L77,81C54.5,81,35.8,81.2,35.4,81.3z M62.3,90c-2.4,2.4-0.6,6.4,2.8,6.4s5.2-4.1,2.8-6.4l-1.1-1.2l10.2,0c5.6,0,10,0.1,9.6,0.3c-0.7,0.3-1.9,2.6-1.9,3.8c0,1.3,1.8,3.2,3.5,3.5c1.1,0.2,1.7,0,2.9-1c1.9-1.6,2-3.9,0.3-5.5l-1.1-1.2h10.1h10.2l-1.2,1.5c-1,1.2-1.2,1.8-1,2.9c0.4,1.7,1.4,2.9,2.9,3.2l1.1,0.3v7.8c0,6.5-0.1,7.8-0.6,7.8c-0.4,0-1.2,0.5-1.9,1.1c-1.8,1.5-1.8,4.1,0,5.6c0.7,0.6,1.6,1.1,1.9,1.1c0.6,0,0.6,1.3,0.6,7.8c0,6.5-0.1,7.8-0.6,7.8c-0.4,0-1.2,0.5-1.9,1.1c-1.8,1.5-1.8,4.1,0,5.6c0.7,0.6,1.6,1.1,1.9,1.1c0.6,0,0.6,1.3,0.6,7.8v7.8l-1.1,0.3c-1.5,0.4-2.5,1.5-2.9,3.2c-0.2,1.1,0,1.7,1,2.9c0.7,0.8,1.6,1.5,2.1,1.5c0.8,0,0.9,0.4,0.9,7.8v7.8l-1.5,0.6c-3.3,1.3-3.3,5.7,0,7l1.5,0.6v7.8c0,7.4,0,7.8-0.9,7.8c-0.5,0-1.4,0.6-2.1,1.5c-1.5,1.8-1.3,3.7,0.5,5.3l1.2,1.1h-10.6H89.7l1.4-1.2c3.5-3,0-8-4.3-6.4c-0.9,0.4-2.1,2.5-2.1,3.9c0,0.6,0.6,1.6,1.3,2.4l1.3,1.3H76.8H66.3l1.3-1.3c2.6-2.6,1.1-6.5-2.6-6.5c-3.6,0-5.2,3.9-2.6,6.5l1.3,1.3H53.2H42.6l1.2-0.9c2.4-1.9,1.8-5.9-1.1-6.8l-1.4-0.5v-7.6v-7.7l1.5-0.6c3.2-1.3,3.3-5.3,0.2-6.9l-1.7-0.9v-7.6v-7.6l1.4-0.5c3.6-1.2,3.4-6.4-0.3-7.5c-1.1-0.3-1.1-0.5-1.1-8.2c0-6.8,0.1-7.8,0.7-7.8c1.2,0,3.4-2.6,3.4-3.9s-2.3-3.9-3.4-3.9c-0.6,0-0.7-1-0.7-7.8s0.1-7.8,0.7-7.8c1.2,0,3.4-2.6,3.4-3.8c0-1.5-2.1-4-3.3-4c-0.8,0-0.9-0.4-0.9-7.7v-7.7l1.5-0.7c2.7-1.2,3.3-4.3,1.2-6.4c-0.9-0.9-0.9-0.9,9.2-0.9h10.1L62.3,90z"/><path fill="#000000" d="M51.7,100.8c-1.3,0.5-2,1.4-2.4,3.1c-0.4,1.9,1.6,4.3,3.7,4.3c2.2,0,3.9-1.5,3.9-3.5c0-2.2-0.4-3-1.9-3.7C53.7,100.3,53.1,100.2,51.7,100.8z"/><path fill="#000000" d="M75.2,100.9c-1.5,0.8-2.1,1.8-2.1,3.6c0,4.4,6,5.1,7.5,0.8c0.5-1.3-0.6-3.6-2-4.3C77.1,100.2,76.5,100.2,75.2,100.9z"/><path fill="#000000" d="M98.1,101.5c-3.5,3-0.1,8.1,4.3,6.4c2-0.8,2.5-4.7,0.7-6.4C101.6,100.2,99.7,100.2,98.1,101.5z"/><path fill="#000000" d="M62.3,113.5c-1.6,1.6-1.5,3.6,0.2,5.3c0.8,0.8,1.8,1.3,2.6,1.3c1.5,0,3.9-2.3,3.9-3.7C69,112.9,64.8,111,62.3,113.5z"/><path fill="#000000" d="M86.1,113.3c-2.1,2-1.7,4.9,0.9,6.4c2.4,1.3,5.5-0.6,5.5-3.5C92.5,112.9,88.5,111.1,86.1,113.3z"/><path fill="#000000" d="M51.7,124.5c-3.1,1.4-3,5.7,0.1,7c2.6,1.1,5.3-0.7,5.3-3.5C57,125.1,54.3,123.4,51.7,124.5z"/><path fill="#000000" d="M75.9,124.2c-3.7,1.3-3.6,6.3,0.1,7.7c0.5,0.1,1.5,0,2.3-0.2c3.2-1.1,3.3-5.8,0.1-7.1c-0.8-0.4-1.6-0.6-1.7-0.6C76.7,123.9,76.3,124,75.9,124.2z"/><path fill="#000000" d="M99.4,124.2c-3.7,1.3-3.6,6.3,0.1,7.7c2.4,0.8,5.3-2.1,4.7-4.8C103.8,125.1,101.1,123.6,99.4,124.2z"/><path fill="#000000" d="M63.2,136.4c-3.5,2-2.3,7.3,1.7,7.3c1.7,0,2.7-0.6,3.5-2.2c0.9-1.6,0.6-2.9-0.8-4.3C66.2,135.8,64.8,135.5,63.2,136.4z"/><path fill="#000000" d="M86,137.2c-1.7,1.7-1.7,3.2-0.1,5.1c0.9,1.1,1.6,1.4,2.8,1.4c4.1,0,5.3-5.3,1.7-7.3C88.7,135.5,87.4,135.7,86,137.2z"/><path fill="#000000" d="M50.3,149.3c-1.3,1.6-1.3,3.5,0,5c1.6,1.8,5.6,1.3,6.4-0.7c1.1-3-0.6-5.8-3.5-5.8C51.9,147.8,51.3,148.1,50.3,149.3z"/><path fill="#000000" d="M74.2,148.9c-1.1,1.2-1.3,3.5-0.6,4.9c0.7,1.4,3,2.1,4.7,1.4c1.6-0.6,2.9-3,2.4-4.4C79.6,147.8,76.1,146.8,74.2,148.9z"/><path fill="#000000" d="M97.8,149c-3.5,3.5,1.7,8.8,5.3,5.5c1.2-1.1,1.5-3.1,0.7-4.7C102.6,147.5,99.7,147.1,97.8,149z"/><path fill="#000000" d="M62.5,160.6c-1.8,1.8-1.8,3.8-0.2,5.4c2.4,2.4,6.7,0.7,6.7-2.5c0-1.8-1.7-3.6-3.5-4C64.2,159.3,63.7,159.5,62.5,160.6z"/><path fill="#000000" d="M87,159.9c-3.6,1.8-2.4,7.2,1.6,7.2c3.7,0,5.3-4.3,2.5-6.6C89.5,159.2,88.7,159.1,87,159.9z"/><path fill="#000000" d="M50.7,172.4c-2.9,2.4-0.7,7.1,3,6.5c2.1-0.3,3.3-1.8,3.3-3.8C57,171.8,53.3,170.2,50.7,172.4z"/><path fill="#000000" d="M74.3,172.3c-0.9,0.7-1.2,1.3-1.2,2.8c0,3.6,3.6,5.3,6.3,3C83.2,174.8,78.3,169.2,74.3,172.3z"/><path fill="#000000" d="M97.8,172.5c-1.9,1.8-1.5,4.8,0.7,6c1.9,1,3.1,0.8,4.6-0.6c1.7-1.7,1.7-3.2,0.1-5.1C101.8,170.9,99.5,170.8,97.8,172.5z"/><path fill="#000000" d="M64.1,183.2c-0.6,0.1-1.5,0.7-2,1.3c-3,3.9,2.3,8.5,5.8,5C70.6,186.8,68.1,182.6,64.1,183.2z"/><path fill="#000000" d="M87,183.7c-3.9,1.9-2.4,7.2,2,7.1c1.8,0,3.5-1.9,3.5-3.8c0-1.5-1.6-3.5-3-3.9C89,183,87.9,183.2,87,183.7z"/><path fill="#000000" d="M50.7,195.9c-2.7,2.3-0.9,6.7,2.6,6.7c3.2,0,4.9-4.3,2.5-6.7C54.4,194.5,52.4,194.5,50.7,195.9z"/><path fill="#000000" d="M74.3,196c-1.7,1.6-1.6,4.4,0,5.7c2.6,2.1,6.4,0.4,6.4-3C80.7,195.3,76.7,193.6,74.3,196z"/><path fill="#000000" d="M98.7,195.4c-3.5,1.9-2.3,7.3,1.6,7.3c1.8,0,4.1-2.2,4.1-3.9c0-1.5-2.3-3.9-3.8-3.9C100.1,194.8,99.2,195.1,98.7,195.4z"/><path fill="#000000" d="M137,82.1l-1.2,1.1v68.3v68.3l1.3,1.3l1.4,1.3l40.8-0.1l40.8-0.1l1.1-1.1l1.1-1.1l0.1-67.6c0-37.2,0-68.1-0.1-68.7c-0.1-0.6-0.6-1.4-1.2-1.9c-0.9-0.9-1.7-0.9-41.9-0.9h-41.1L137,82.1z M164.6,90c-1.7,1.7-1.6,4,0.3,5.5c1.2,1,1.8,1.2,2.9,1c1.7-0.3,3.5-2.2,3.5-3.5c0-1.2-1.2-3.5-1.9-3.8c-0.3-0.1,4-0.3,9.6-0.3l10.2,0l-1.1,1.2c-2.4,2.4-0.6,6.4,2.8,6.4s5.2-4.1,2.8-6.4l-1.1-1.2h10.1c10.1,0,10.1,0,9.2,0.9c-2.1,2.1-1.4,5.2,1.3,6.4l1.5,0.7v7.7c0,7.3,0,7.7-0.9,7.7c-1.2,0-3.3,2.5-3.3,4c0,1.2,2.3,3.8,3.4,3.8c0.6,0,0.7,1,0.7,7.8s-0.1,7.8-0.7,7.8c-1.2,0-3.4,2.6-3.4,3.9c0,1.3,2.3,3.9,3.4,3.9c0.6,0,0.7,1,0.7,7.8v7.8l-1.2,0.3c-1.4,0.3-3,2.3-3,3.5c0,1.6,1.3,3.5,2.8,4l1.4,0.5v7.6v7.7l-1.6,0.6c-3.2,1.3-3.3,5.3-0.1,6.9l1.7,0.9v7.6v7.6l-1.4,0.5c-2.9,1-3.5,4.9-1.1,6.8l1.2,0.9h-10.6h-10.6l1.3-1.3c2.6-2.6,1.1-6.5-2.6-6.5c-3.6,0-5.2,3.9-2.6,6.5l1.3,1.3h-10.5h-10.5l1.3-1.3c1.5-1.5,1.7-2.7,0.6-4.6c-1.8-3.5-7.1-2-7.1,2c0,1.2,0.3,1.8,1.4,2.8l1.4,1.2h-10.8c-10.2,0-10.7,0-9.8-0.8c1.4-1.1,2.1-2.7,1.8-3.9c-0.4-1.4-2-3.1-3-3.1c-0.8,0-0.8-0.6-0.8-7.8v-7.8l1.5-0.6c3.3-1.3,3.3-5.7,0-7l-1.5-0.6V175c0-7.3,0-7.8,0.8-7.8c1,0,2.6-1.7,3-3.1c0.5-1.5-0.9-3.8-2.5-4.4l-1.3-0.5v-7.8c0-6.5,0.1-7.8,0.6-7.8c0.4,0,1.2-0.5,1.9-1.1c1.8-1.5,1.8-4.1,0-5.6c-0.7-0.6-1.6-1.1-1.9-1.1c-0.6,0-0.6-1.3-0.6-7.8s0.1-7.8,0.6-7.8c0.4,0,1.2-0.5,1.9-1.1c1-0.8,1.3-1.5,1.3-2.8c0-1.3-0.3-2-1.3-2.8c-0.7-0.6-1.6-1.1-1.9-1.1c-0.6,0-0.6-1.3-0.6-7.8v-7.8l1.3-0.5c1.6-0.6,3-2.9,2.5-4.4c-0.1-0.6-0.7-1.5-1.2-2.1l-0.9-1h10.2h10.2L164.6,90z"/><path fill="#000000" d="M153.8,100.9c-3.6,1.8-2.4,7.2,1.6,7.2c3.7,0,5.3-4.3,2.5-6.6C156.3,100.2,155.5,100.1,153.8,100.9z"/><path fill="#000000" d="M177.5,100.8c-1.3,0.6-2.6,3-2.2,4.3c0.6,1.9,2.1,3.1,3.9,3.1c2.1,0,3.7-1.5,3.7-3.5c0-2.1-0.4-2.9-1.9-3.6C179.5,100.3,178.9,100.2,177.5,100.8z"/><path fill="#000000" d="M201.1,100.9c-2.4,1.2-2.9,4.5-1,6.3c3.1,2.9,8-0.8,6.1-4.5C205.1,100.6,202.9,99.9,201.1,100.9z"/><path fill="#000000" d="M164.6,113.5c-1.9,1.8-1.5,4.8,0.7,6c1.9,1,3.1,0.8,4.6-0.6c1.7-1.7,1.7-3.2,0.1-5.1C168.6,111.9,166.3,111.8,164.6,113.5z"/><path fill="#000000" d="M188.9,112.7c-0.8,0.3-1.9,2.6-1.9,3.8c0,1.4,2.4,3.7,3.9,3.7c1.8,0,3.9-2.3,3.9-4.1C194.8,113.3,191.7,111.5,188.9,112.7z"/><path fill="#000000" d="M153.9,124.5c-3.9,1.7-2.5,7.3,1.8,7.3c3.2,0,4.9-4.3,2.6-6.5C156.9,124,155.7,123.8,153.9,124.5z"/><path fill="#000000" d="M177.5,124.5c-1.9,0.9-2.7,3-1.8,5.1c1.6,3.8,7.2,2.5,7.2-1.6C182.9,125.1,180.1,123.4,177.5,124.5z"/><path fill="#000000" d="M201.8,124.2c-3.7,1.4-3.6,6.3,0.1,7.7c0.5,0.2,1.5,0,2.4-0.3c3.2-1.3,3.2-5.7,0-7c-0.9-0.4-1.6-0.6-1.7-0.6C202.5,123.9,202.1,124,201.8,124.2z"/><path fill="#000000" d="M165.6,136.4c-3.6,1.9-2.3,7.3,1.8,7.3c1.2,0,1.8-0.3,2.8-1.4c1.6-1.8,1.5-3.4-0.1-5.1C168.6,135.8,167.1,135.5,165.6,136.4z"/><path fill="#000000" d="M188.3,137.2c-1.4,1.4-1.7,2.7-0.8,4.3c0.8,1.5,1.8,2.1,3.5,2.2c1.9,0,3.8-1.8,3.8-3.8c0-1.8-2.2-4.1-3.9-4.1C190.2,135.8,189.2,136.4,188.3,137.2z"/><path fill="#000000" d="M153.4,148.1c-1,0.4-2,2.9-1.7,4.3c0.4,1.6,1.5,2.7,3.3,3c2,0.4,4.3-1.6,4.3-3.8C159.3,148.8,156.3,147,153.4,148.1z"/><path fill="#000000" d="M176.5,148.8c-1.4,1.6-1.7,2.9-0.9,4.4c1,1.9,3,2.7,4.9,1.9c1.7-0.7,2.3-1.7,2.3-3.8C182.9,148.2,178.7,146.5,176.5,148.8z"/><path fill="#000000" d="M200,148.9c-1.1,1.2-1.3,3.5-0.6,4.9c0.2,0.5,1.1,1.1,1.8,1.4c1.8,0.7,3.9,0,4.9-1.9C208.1,149.5,202.9,145.8,200,148.9z"/><path fill="#000000" d="M165,160.5c-3.5,3-0.1,8.1,4.3,6.4c0.9-0.4,2.1-2.5,2.1-3.8c0-1.3-1.8-3.2-3.5-3.5C166.7,159.3,166.1,159.5,165,160.5z"/><path fill="#000000" d="M189.5,159.8c-3.9,1.6-2.8,7.4,1.4,7.4c3.6,0,5.2-3.9,2.6-6.5C192.1,159.3,191.2,159.1,189.5,159.8z"/><path fill="#000000" d="M152.7,172.8c-1.6,1.8-1.5,3.4,0.1,5.1c1.5,1.5,2.7,1.7,4.6,0.6c3.5-1.8,2-7.1-2-7.1C154.3,171.3,153.6,171.7,152.7,172.8z"/><path fill="#000000" d="M176.6,172.4c-2.7,2.3-0.9,6.7,2.6,6.7c3.3,0,5-4.8,2.4-6.9C180,171,178.2,171.1,176.6,172.4z"/><path fill="#000000" d="M200.1,172.5c-2.4,2.4-0.7,6.7,2.5,6.7c2.1,0,3.9-1.8,3.9-3.9C206.5,171.8,202.5,170.1,200.1,172.5z"/><path fill="#000000" d="M166,183.3c-2.4,1-3.2,4.1-1.6,6.1c2.5,3.2,7.6,0.6,6.7-3.4C170.6,184,167.9,182.5,166,183.3z"/><path fill="#000000" d="M189.9,183.2c-0.6,0.1-1.5,0.7-2,1.3c-2.1,2.6-0.3,6.2,3,6.2c1.4,0,2.1-0.3,2.9-1.2C196.3,186.6,193.9,182.6,189.9,183.2z"/><path fill="#000000" d="M152.8,196.2c-0.8,0.8-1.3,1.8-1.3,2.6c0,1.8,2.3,3.9,4.1,3.9c3.8,0,5.2-5.4,1.8-7.1C155.5,194.5,154.4,194.7,152.8,196.2z"/><path fill="#000000" d="M176.6,195.9c-2.7,2.3-0.9,6.7,2.6,6.7c2,0,3.6-1.8,3.6-3.9C182.9,195.3,179.2,193.7,176.6,195.9z"/><path fill="#000000" d="M200.1,196c-2.4,2.4-0.7,6.7,2.5,6.7c2.1,0,3.9-1.8,3.9-3.9C206.5,195.3,202.5,193.6,200.1,196z"/></g></g></g>
</svg>